M48
;DRILL file {KiCad (2016-02-11 BZR 6551)-product} date Friday, February 12, 2016 'PMt' 09:02:11 PM
;FORMAT={-:-/ absolute / inch / decimal}
FMAT,2
INCH,TZ
T1C0.016
T2C0.031
T3C0.032
T4C0.040
%
G90
G05
M72
T1
X7.6491Y-4.3292
X7.6673Y-4.4488
X7.725Y-4.7
X7.75Y-5.2
X7.775Y-4.05
X7.775Y-4.525
X7.825Y-3.775
X7.825Y-5.575
X7.9Y-4.425
X7.9012Y-4.825
X7.925Y-3.901
X7.925Y-4.175
X7.925Y-4.975
X7.975Y-4.25
X8.Y-4.35
X8.Y-4.525
X8.025Y-3.95
X8.05Y-4.7774
X8.075Y-4.3
X8.125Y-4.3814
X8.143Y-5.575
X8.15Y-5.3
X8.225Y-4.525
X8.225Y-4.925
X8.225Y-4.875
X8.25Y-4.35
X8.275Y-4.225
X8.325Y-3.9
X8.325Y-4.05
X8.4Y-4.6
X8.4225Y-4.2371
X8.425Y-3.95
X8.5207Y-4.275
X8.525Y-4.65
X8.6686Y-4.8
X8.6686Y-4.9053
X8.7Y-4.175
X8.8Y-4.075
X8.8121Y-3.4475
X8.85Y-3.9007
X8.85Y-4.2
X8.9Y-4.275
X9.075Y-4.
X9.075Y-4.325
X9.15Y-3.925
X9.175Y-4.7
X9.225Y-4.8
T2
X8.8Y-4.55
X8.8Y-4.65
X8.8Y-4.75
X8.8Y-4.85
X8.8Y-4.95
X8.8Y-5.05
X8.8Y-5.15
X8.8Y-5.25
X8.8Y-5.35
X9.1Y-4.55
X9.1Y-4.65
X9.1Y-4.75
X9.1Y-4.85
X9.1Y-4.95
X9.1Y-5.05
X9.1Y-5.15
X9.1Y-5.25
X9.1Y-5.35
T3
X7.625Y-4.9
X7.625Y-5.
X7.625Y-5.1
X7.65Y-3.45
X7.65Y-3.55
X7.65Y-3.65
X7.675Y-3.925
X7.675Y-4.025
X7.675Y-4.125
X8.075Y-3.45
X8.075Y-3.55
X8.075Y-3.65
X8.375Y-4.9
X8.375Y-5.
X8.375Y-5.1
X8.65Y-3.925
X8.65Y-4.025
X8.65Y-4.125
T4
X7.4Y-3.95
X7.4Y-4.05
X7.4Y-4.15
X7.4Y-4.25
X7.4Y-4.35
X7.4Y-4.45
X7.4Y-4.55
X7.4Y-4.65
X7.4Y-4.85
X7.4Y-4.95
X7.4Y-5.05
X7.4Y-5.15
X7.4Y-5.25
X7.4Y-5.35
X7.625Y-5.475
X7.725Y-5.475
X7.8Y-3.3
X7.825Y-5.475
X7.9Y-3.3
X7.925Y-5.475
X8.025Y-5.475
X8.2Y-3.3
X8.25Y-5.475
X8.3Y-3.3
X8.35Y-5.475
X8.45Y-5.475
X8.55Y-3.3
X8.55Y-5.475
X8.65Y-3.3
X8.65Y-5.475
X8.75Y-3.3
X9.3Y-3.6
X9.3Y-3.7
X9.3Y-3.8
X9.3Y-3.9
X9.3Y-4.
X9.3Y-4.1
X9.3Y-4.2
X9.3Y-4.3
X9.3Y-4.4
X9.3Y-4.5
X9.3Y-4.65
X9.3Y-4.75
X9.3Y-4.85
X9.3Y-4.95
X9.3Y-5.05
X9.3Y-5.15
X9.3Y-5.25
X9.3Y-5.35
T0
M30
