G04 #@! TF.FileFunction,Legend,Bot*
%FSLAX45Y45*%
G04 Gerber Fmt 4.5, Leading zero omitted, Abs format (unit mm)*
G04 Created by KiCad (PCBNEW (2016-02-11 BZR 6551)-product) date Friday, February 12, 2016 'PMt' 09:14:11 PM*
%MOMM*%
G01*
G04 APERTURE LIST*
%ADD10C,0.100000*%
%ADD11C,0.300000*%
%ADD12R,2.032000X1.727200*%
%ADD13O,2.032000X1.727200*%
%ADD14R,1.727200X2.032000*%
%ADD15O,1.727200X2.032000*%
%ADD16C,1.524000*%
%ADD17R,2.032000X2.032000*%
%ADD18O,2.032000X2.032000*%
%ADD19O,2.300000X1.600000*%
G04 APERTURE END LIST*
D10*
D11*
X19339286Y-11280000D02*
X19353571Y-11272857D01*
X19375000Y-11272857D01*
X19396429Y-11280000D01*
X19410714Y-11294286D01*
X19417857Y-11308571D01*
X19425000Y-11337143D01*
X19425000Y-11358571D01*
X19417857Y-11387143D01*
X19410714Y-11401429D01*
X19396429Y-11415714D01*
X19375000Y-11422857D01*
X19360714Y-11422857D01*
X19339286Y-11415714D01*
X19332143Y-11408571D01*
X19332143Y-11358571D01*
X19360714Y-11358571D01*
X19267857Y-11422857D02*
X19267857Y-11272857D01*
X19182143Y-11422857D01*
X19182143Y-11272857D01*
X19110714Y-11422857D02*
X19110714Y-11272857D01*
X19075000Y-11272857D01*
X19053571Y-11280000D01*
X19039286Y-11294286D01*
X19032143Y-11308571D01*
X19025000Y-11337143D01*
X19025000Y-11358571D01*
X19032143Y-11387143D01*
X19039286Y-11401429D01*
X19053571Y-11415714D01*
X19075000Y-11422857D01*
X19110714Y-11422857D01*
X19339286Y-11520000D02*
X19353571Y-11512857D01*
X19375000Y-11512857D01*
X19396429Y-11520000D01*
X19410714Y-11534286D01*
X19417857Y-11548571D01*
X19425000Y-11577143D01*
X19425000Y-11598571D01*
X19417857Y-11627143D01*
X19410714Y-11641429D01*
X19396429Y-11655714D01*
X19375000Y-11662857D01*
X19360714Y-11662857D01*
X19339286Y-11655714D01*
X19332143Y-11648571D01*
X19332143Y-11598571D01*
X19360714Y-11598571D01*
X19267857Y-11662857D02*
X19267857Y-11512857D01*
X19182143Y-11662857D01*
X19182143Y-11512857D01*
X19110714Y-11662857D02*
X19110714Y-11512857D01*
X19075000Y-11512857D01*
X19053571Y-11520000D01*
X19039286Y-11534286D01*
X19032143Y-11548571D01*
X19025000Y-11577143D01*
X19025000Y-11598571D01*
X19032143Y-11627143D01*
X19039286Y-11641429D01*
X19053571Y-11655714D01*
X19075000Y-11662857D01*
X19110714Y-11662857D01*
X19417857Y-11060714D02*
X19303571Y-11060714D01*
X19360714Y-11117857D02*
X19360714Y-11003571D01*
X19160714Y-10967857D02*
X19232143Y-10967857D01*
X19239286Y-11039286D01*
X19232143Y-11032143D01*
X19217857Y-11025000D01*
X19182143Y-11025000D01*
X19167857Y-11032143D01*
X19160714Y-11039286D01*
X19153571Y-11053571D01*
X19153571Y-11089286D01*
X19160714Y-11103571D01*
X19167857Y-11110714D01*
X19182143Y-11117857D01*
X19217857Y-11117857D01*
X19232143Y-11110714D01*
X19239286Y-11103571D01*
X19110714Y-10967857D02*
X19060714Y-11117857D01*
X19010714Y-10967857D01*
X23317857Y-9471429D02*
X23167857Y-9471429D01*
X23275000Y-9521429D01*
X23167857Y-9571429D01*
X23317857Y-9571429D01*
X23317857Y-9664286D02*
X23310714Y-9650000D01*
X23303571Y-9642857D01*
X23289286Y-9635714D01*
X23246429Y-9635714D01*
X23232143Y-9642857D01*
X23225000Y-9650000D01*
X23217857Y-9664286D01*
X23217857Y-9685714D01*
X23225000Y-9700000D01*
X23232143Y-9707143D01*
X23246429Y-9714286D01*
X23289286Y-9714286D01*
X23303571Y-9707143D01*
X23310714Y-9700000D01*
X23317857Y-9685714D01*
X23317857Y-9664286D01*
X23217857Y-9757143D02*
X23217857Y-9814286D01*
X23167857Y-9778572D02*
X23296429Y-9778572D01*
X23310714Y-9785714D01*
X23317857Y-9800000D01*
X23317857Y-9814286D01*
X23317857Y-9885714D02*
X23310714Y-9871429D01*
X23303571Y-9864286D01*
X23289286Y-9857143D01*
X23246429Y-9857143D01*
X23232143Y-9864286D01*
X23225000Y-9871429D01*
X23217857Y-9885714D01*
X23217857Y-9907143D01*
X23225000Y-9921429D01*
X23232143Y-9928572D01*
X23246429Y-9935714D01*
X23289286Y-9935714D01*
X23303571Y-9928572D01*
X23310714Y-9921429D01*
X23317857Y-9907143D01*
X23317857Y-9885714D01*
X23317857Y-10000000D02*
X23217857Y-10000000D01*
X23246429Y-10000000D02*
X23232143Y-10007143D01*
X23225000Y-10014286D01*
X23217857Y-10028572D01*
X23217857Y-10042857D01*
X23310714Y-10200000D02*
X23317857Y-10221429D01*
X23317857Y-10257143D01*
X23310714Y-10271429D01*
X23303571Y-10278572D01*
X23289286Y-10285714D01*
X23275000Y-10285714D01*
X23260714Y-10278572D01*
X23253571Y-10271429D01*
X23246429Y-10257143D01*
X23239286Y-10228572D01*
X23232143Y-10214286D01*
X23225000Y-10207143D01*
X23210714Y-10200000D01*
X23196429Y-10200000D01*
X23182143Y-10207143D01*
X23175000Y-10214286D01*
X23167857Y-10228572D01*
X23167857Y-10264286D01*
X23175000Y-10285714D01*
X23317857Y-10350000D02*
X23167857Y-10350000D01*
X23317857Y-10414286D02*
X23239286Y-10414286D01*
X23225000Y-10407143D01*
X23217857Y-10392857D01*
X23217857Y-10371429D01*
X23225000Y-10357143D01*
X23232143Y-10350000D01*
X23317857Y-10485714D02*
X23217857Y-10485714D01*
X23167857Y-10485714D02*
X23175000Y-10478571D01*
X23182143Y-10485714D01*
X23175000Y-10492857D01*
X23167857Y-10485714D01*
X23182143Y-10485714D01*
X23310714Y-10614286D02*
X23317857Y-10600000D01*
X23317857Y-10571429D01*
X23310714Y-10557143D01*
X23296429Y-10550000D01*
X23239286Y-10550000D01*
X23225000Y-10557143D01*
X23217857Y-10571429D01*
X23217857Y-10600000D01*
X23225000Y-10614286D01*
X23239286Y-10621429D01*
X23253571Y-10621429D01*
X23267857Y-10550000D01*
X23317857Y-10707143D02*
X23310714Y-10692857D01*
X23296429Y-10685714D01*
X23167857Y-10685714D01*
X23317857Y-10828571D02*
X23167857Y-10828571D01*
X23310714Y-10828571D02*
X23317857Y-10814286D01*
X23317857Y-10785714D01*
X23310714Y-10771429D01*
X23303571Y-10764286D01*
X23289286Y-10757143D01*
X23246429Y-10757143D01*
X23232143Y-10764286D01*
X23225000Y-10771429D01*
X23217857Y-10785714D01*
X23217857Y-10814286D01*
X23225000Y-10828571D01*
X22121429Y-8767857D02*
X22121429Y-8617857D01*
X22057143Y-8632143D02*
X22050000Y-8625000D01*
X22035714Y-8617857D01*
X22000000Y-8617857D01*
X21985714Y-8625000D01*
X21978571Y-8632143D01*
X21971429Y-8646429D01*
X21971429Y-8660714D01*
X21978571Y-8682143D01*
X22064286Y-8767857D01*
X21971429Y-8767857D01*
X21821429Y-8753571D02*
X21828571Y-8760714D01*
X21850000Y-8767857D01*
X21864286Y-8767857D01*
X21885714Y-8760714D01*
X21900000Y-8746429D01*
X21907143Y-8732143D01*
X21914286Y-8703571D01*
X21914286Y-8682143D01*
X21907143Y-8653571D01*
X21900000Y-8639286D01*
X21885714Y-8625000D01*
X21864286Y-8617857D01*
X21850000Y-8617857D01*
X21828571Y-8625000D01*
X21821429Y-8632143D01*
X21835714Y-14164286D02*
X21785714Y-14164286D01*
X21764286Y-14242857D02*
X21835714Y-14242857D01*
X21835714Y-14092857D01*
X21764286Y-14092857D01*
X21700000Y-14142857D02*
X21700000Y-14242857D01*
X21700000Y-14157143D02*
X21692857Y-14150000D01*
X21678571Y-14142857D01*
X21657143Y-14142857D01*
X21642857Y-14150000D01*
X21635714Y-14164286D01*
X21635714Y-14242857D01*
X21500000Y-14235714D02*
X21514286Y-14242857D01*
X21542857Y-14242857D01*
X21557143Y-14235714D01*
X21564286Y-14228571D01*
X21571429Y-14214286D01*
X21571429Y-14171429D01*
X21564286Y-14157143D01*
X21557143Y-14150000D01*
X21542857Y-14142857D01*
X21514286Y-14142857D01*
X21500000Y-14150000D01*
X21414286Y-14242857D02*
X21428571Y-14235714D01*
X21435714Y-14228571D01*
X21442857Y-14214286D01*
X21442857Y-14171429D01*
X21435714Y-14157143D01*
X21428571Y-14150000D01*
X21414286Y-14142857D01*
X21392857Y-14142857D01*
X21378571Y-14150000D01*
X21371429Y-14157143D01*
X21364286Y-14171429D01*
X21364286Y-14214286D01*
X21371429Y-14228571D01*
X21378571Y-14235714D01*
X21392857Y-14242857D01*
X21414286Y-14242857D01*
X21235714Y-14242857D02*
X21235714Y-14092857D01*
X21235714Y-14235714D02*
X21250000Y-14242857D01*
X21278571Y-14242857D01*
X21292857Y-14235714D01*
X21300000Y-14228571D01*
X21307143Y-14214286D01*
X21307143Y-14171429D01*
X21300000Y-14157143D01*
X21292857Y-14150000D01*
X21278571Y-14142857D01*
X21250000Y-14142857D01*
X21235714Y-14150000D01*
X21107143Y-14235714D02*
X21121429Y-14242857D01*
X21150000Y-14242857D01*
X21164286Y-14235714D01*
X21171429Y-14221429D01*
X21171429Y-14164286D01*
X21164286Y-14150000D01*
X21150000Y-14142857D01*
X21121429Y-14142857D01*
X21107143Y-14150000D01*
X21100000Y-14164286D01*
X21100000Y-14178571D01*
X21171429Y-14192857D01*
X21035714Y-14242857D02*
X21035714Y-14142857D01*
X21035714Y-14171429D02*
X21028571Y-14157143D01*
X21021429Y-14150000D01*
X21007143Y-14142857D01*
X20992857Y-14142857D01*
X20260714Y-14189286D02*
X20210714Y-14189286D01*
X20189286Y-14267857D02*
X20260714Y-14267857D01*
X20260714Y-14117857D01*
X20189286Y-14117857D01*
X20125000Y-14167857D02*
X20125000Y-14267857D01*
X20125000Y-14182143D02*
X20117857Y-14175000D01*
X20103571Y-14167857D01*
X20082143Y-14167857D01*
X20067857Y-14175000D01*
X20060714Y-14189286D01*
X20060714Y-14267857D01*
X19925000Y-14260714D02*
X19939286Y-14267857D01*
X19967857Y-14267857D01*
X19982143Y-14260714D01*
X19989286Y-14253571D01*
X19996429Y-14239286D01*
X19996429Y-14196429D01*
X19989286Y-14182143D01*
X19982143Y-14175000D01*
X19967857Y-14167857D01*
X19939286Y-14167857D01*
X19925000Y-14175000D01*
X19839286Y-14267857D02*
X19853571Y-14260714D01*
X19860714Y-14253571D01*
X19867857Y-14239286D01*
X19867857Y-14196429D01*
X19860714Y-14182143D01*
X19853571Y-14175000D01*
X19839286Y-14167857D01*
X19817857Y-14167857D01*
X19803571Y-14175000D01*
X19796429Y-14182143D01*
X19789286Y-14196429D01*
X19789286Y-14239286D01*
X19796429Y-14253571D01*
X19803571Y-14260714D01*
X19817857Y-14267857D01*
X19839286Y-14267857D01*
X19660714Y-14267857D02*
X19660714Y-14117857D01*
X19660714Y-14260714D02*
X19675000Y-14267857D01*
X19703571Y-14267857D01*
X19717857Y-14260714D01*
X19725000Y-14253571D01*
X19732143Y-14239286D01*
X19732143Y-14196429D01*
X19725000Y-14182143D01*
X19717857Y-14175000D01*
X19703571Y-14167857D01*
X19675000Y-14167857D01*
X19660714Y-14175000D01*
X19532143Y-14260714D02*
X19546429Y-14267857D01*
X19575000Y-14267857D01*
X19589286Y-14260714D01*
X19596429Y-14246429D01*
X19596429Y-14189286D01*
X19589286Y-14175000D01*
X19575000Y-14167857D01*
X19546429Y-14167857D01*
X19532143Y-14175000D01*
X19525000Y-14189286D01*
X19525000Y-14203571D01*
X19596429Y-14217857D01*
X19460714Y-14267857D02*
X19460714Y-14167857D01*
X19460714Y-14196429D02*
X19453571Y-14182143D01*
X19446429Y-14175000D01*
X19432143Y-14167857D01*
X19417857Y-14167857D01*
X22225000Y-11028571D02*
X22232143Y-11035714D01*
X22253571Y-11042857D01*
X22267857Y-11042857D01*
X22289286Y-11035714D01*
X22303571Y-11021429D01*
X22310714Y-11007143D01*
X22317857Y-10978571D01*
X22317857Y-10957143D01*
X22310714Y-10928571D01*
X22303571Y-10914286D01*
X22289286Y-10900000D01*
X22267857Y-10892857D01*
X22253571Y-10892857D01*
X22232143Y-10900000D01*
X22225000Y-10907143D01*
X22139286Y-11042857D02*
X22153571Y-11035714D01*
X22160714Y-11021429D01*
X22160714Y-10892857D01*
X22060714Y-11042857D02*
X22075000Y-11035714D01*
X22082143Y-11028571D01*
X22089286Y-11014286D01*
X22089286Y-10971429D01*
X22082143Y-10957143D01*
X22075000Y-10950000D01*
X22060714Y-10942857D01*
X22039286Y-10942857D01*
X22025000Y-10950000D01*
X22017857Y-10957143D01*
X22010714Y-10971429D01*
X22010714Y-11014286D01*
X22017857Y-11028571D01*
X22025000Y-11035714D01*
X22039286Y-11042857D01*
X22060714Y-11042857D01*
X21953571Y-11035714D02*
X21939286Y-11042857D01*
X21910714Y-11042857D01*
X21896429Y-11035714D01*
X21889286Y-11021429D01*
X21889286Y-11014286D01*
X21896429Y-11000000D01*
X21910714Y-10992857D01*
X21932143Y-10992857D01*
X21946429Y-10985714D01*
X21953571Y-10971429D01*
X21953571Y-10964286D01*
X21946429Y-10950000D01*
X21932143Y-10942857D01*
X21910714Y-10942857D01*
X21896429Y-10950000D01*
X21767857Y-11035714D02*
X21782143Y-11042857D01*
X21810714Y-11042857D01*
X21825000Y-11035714D01*
X21832143Y-11021429D01*
X21832143Y-10964286D01*
X21825000Y-10950000D01*
X21810714Y-10942857D01*
X21782143Y-10942857D01*
X21767857Y-10950000D01*
X21760714Y-10964286D01*
X21760714Y-10978571D01*
X21832143Y-10992857D01*
X21632143Y-11042857D02*
X21632143Y-10892857D01*
X21632143Y-11035714D02*
X21646429Y-11042857D01*
X21675000Y-11042857D01*
X21689286Y-11035714D01*
X21696429Y-11028571D01*
X21703571Y-11014286D01*
X21703571Y-10971429D01*
X21696429Y-10957143D01*
X21689286Y-10950000D01*
X21675000Y-10942857D01*
X21646429Y-10942857D01*
X21632143Y-10950000D01*
X21375000Y-11042857D02*
X21446429Y-11042857D01*
X21446429Y-10892857D01*
X21303571Y-11042857D02*
X21317857Y-11035714D01*
X21325000Y-11028571D01*
X21332143Y-11014286D01*
X21332143Y-10971429D01*
X21325000Y-10957143D01*
X21317857Y-10950000D01*
X21303571Y-10942857D01*
X21282143Y-10942857D01*
X21267857Y-10950000D01*
X21260714Y-10957143D01*
X21253571Y-10971429D01*
X21253571Y-11014286D01*
X21260714Y-11028571D01*
X21267857Y-11035714D01*
X21282143Y-11042857D01*
X21303571Y-11042857D01*
X21167857Y-11042857D02*
X21182143Y-11035714D01*
X21189286Y-11028571D01*
X21196429Y-11014286D01*
X21196429Y-10971429D01*
X21189286Y-10957143D01*
X21182143Y-10950000D01*
X21167857Y-10942857D01*
X21146429Y-10942857D01*
X21132143Y-10950000D01*
X21125000Y-10957143D01*
X21117857Y-10971429D01*
X21117857Y-11014286D01*
X21125000Y-11028571D01*
X21132143Y-11035714D01*
X21146429Y-11042857D01*
X21167857Y-11042857D01*
X21053571Y-10942857D02*
X21053571Y-11092857D01*
X21053571Y-10950000D02*
X21039286Y-10942857D01*
X21010714Y-10942857D01*
X20996429Y-10950000D01*
X20989286Y-10957143D01*
X20982143Y-10971429D01*
X20982143Y-11014286D01*
X20989286Y-11028571D01*
X20996429Y-11035714D01*
X21010714Y-11042857D01*
X21039286Y-11042857D01*
X21053571Y-11035714D01*
X20717857Y-11042857D02*
X20767857Y-10971429D01*
X20803571Y-11042857D02*
X20803571Y-10892857D01*
X20746429Y-10892857D01*
X20732143Y-10900000D01*
X20725000Y-10907143D01*
X20717857Y-10921429D01*
X20717857Y-10942857D01*
X20725000Y-10957143D01*
X20732143Y-10964286D01*
X20746429Y-10971429D01*
X20803571Y-10971429D01*
X20632143Y-11042857D02*
X20646429Y-11035714D01*
X20653571Y-11028571D01*
X20660714Y-11014286D01*
X20660714Y-10971429D01*
X20653571Y-10957143D01*
X20646429Y-10950000D01*
X20632143Y-10942857D01*
X20610714Y-10942857D01*
X20596429Y-10950000D01*
X20589286Y-10957143D01*
X20582143Y-10971429D01*
X20582143Y-11014286D01*
X20589286Y-11028571D01*
X20596429Y-11035714D01*
X20610714Y-11042857D01*
X20632143Y-11042857D01*
X20532143Y-10942857D02*
X20496428Y-11042857D01*
X20460714Y-10942857D01*
X20346429Y-11035714D02*
X20360714Y-11042857D01*
X20389286Y-11042857D01*
X20403571Y-11035714D01*
X20410714Y-11021429D01*
X20410714Y-10964286D01*
X20403571Y-10950000D01*
X20389286Y-10942857D01*
X20360714Y-10942857D01*
X20346429Y-10950000D01*
X20339286Y-10964286D01*
X20339286Y-10978571D01*
X20410714Y-10992857D01*
X20275000Y-11042857D02*
X20275000Y-10942857D01*
X20275000Y-10971429D02*
X20267857Y-10957143D01*
X20260714Y-10950000D01*
X20246429Y-10942857D01*
X20232143Y-10942857D01*
X20067857Y-11042857D02*
X20067857Y-10892857D01*
X20032143Y-10892857D01*
X20010714Y-10900000D01*
X19996429Y-10914286D01*
X19989286Y-10928571D01*
X19982143Y-10957143D01*
X19982143Y-10978571D01*
X19989286Y-11007143D01*
X19996429Y-11021429D01*
X20010714Y-11035714D01*
X20032143Y-11042857D01*
X20067857Y-11042857D01*
X19917857Y-11042857D02*
X19917857Y-10942857D01*
X19917857Y-10971429D02*
X19910714Y-10957143D01*
X19903571Y-10950000D01*
X19889286Y-10942857D01*
X19875000Y-10942857D01*
X19825000Y-11042857D02*
X19825000Y-10942857D01*
X19825000Y-10892857D02*
X19832143Y-10900000D01*
X19825000Y-10907143D01*
X19817857Y-10900000D01*
X19825000Y-10892857D01*
X19825000Y-10907143D01*
X19767857Y-10942857D02*
X19732143Y-11042857D01*
X19696429Y-10942857D01*
X19582143Y-11035714D02*
X19596429Y-11042857D01*
X19625000Y-11042857D01*
X19639286Y-11035714D01*
X19646429Y-11021429D01*
X19646429Y-10964286D01*
X19639286Y-10950000D01*
X19625000Y-10942857D01*
X19596429Y-10942857D01*
X19582143Y-10950000D01*
X19575000Y-10964286D01*
X19575000Y-10978571D01*
X19646429Y-10992857D01*
X19510714Y-11042857D02*
X19510714Y-10942857D01*
X19510714Y-10971429D02*
X19503572Y-10957143D01*
X19496429Y-10950000D01*
X19482143Y-10942857D01*
X19467857Y-10942857D01*
X21960714Y-12242857D02*
X21960714Y-12092857D01*
X21925000Y-12092857D01*
X21903571Y-12100000D01*
X21889286Y-12114286D01*
X21882143Y-12128571D01*
X21875000Y-12157143D01*
X21875000Y-12178571D01*
X21882143Y-12207143D01*
X21889286Y-12221429D01*
X21903571Y-12235714D01*
X21925000Y-12242857D01*
X21960714Y-12242857D01*
X21810714Y-12242857D02*
X21810714Y-12092857D01*
X21760714Y-12200000D01*
X21710714Y-12092857D01*
X21710714Y-12242857D01*
X21589286Y-12164286D02*
X21639286Y-12164286D01*
X21639286Y-12242857D02*
X21639286Y-12092857D01*
X21567857Y-12092857D01*
X21510714Y-12164286D02*
X21460714Y-12164286D01*
X21439286Y-12242857D02*
X21510714Y-12242857D01*
X21510714Y-12092857D01*
X21439286Y-12092857D01*
X21267857Y-12107143D02*
X21260714Y-12100000D01*
X21246428Y-12092857D01*
X21210714Y-12092857D01*
X21196428Y-12100000D01*
X21189286Y-12107143D01*
X21182143Y-12121429D01*
X21182143Y-12135714D01*
X21189286Y-12157143D01*
X21275000Y-12242857D01*
X21182143Y-12242857D01*
X21089286Y-12092857D02*
X21075000Y-12092857D01*
X21060714Y-12100000D01*
X21053571Y-12107143D01*
X21046428Y-12121429D01*
X21039286Y-12150000D01*
X21039286Y-12185714D01*
X21046428Y-12214286D01*
X21053571Y-12228571D01*
X21060714Y-12235714D01*
X21075000Y-12242857D01*
X21089286Y-12242857D01*
X21103571Y-12235714D01*
X21110714Y-12228571D01*
X21117857Y-12214286D01*
X21125000Y-12185714D01*
X21125000Y-12150000D01*
X21117857Y-12121429D01*
X21110714Y-12107143D01*
X21103571Y-12100000D01*
X21089286Y-12092857D01*
X20896429Y-12242857D02*
X20982143Y-12242857D01*
X20939286Y-12242857D02*
X20939286Y-12092857D01*
X20953571Y-12114286D01*
X20967857Y-12128571D01*
X20982143Y-12135714D01*
X20767857Y-12092857D02*
X20796429Y-12092857D01*
X20810714Y-12100000D01*
X20817857Y-12107143D01*
X20832143Y-12128571D01*
X20839286Y-12157143D01*
X20839286Y-12214286D01*
X20832143Y-12228571D01*
X20825000Y-12235714D01*
X20810714Y-12242857D01*
X20782143Y-12242857D01*
X20767857Y-12235714D01*
X20760714Y-12228571D01*
X20753571Y-12214286D01*
X20753571Y-12178571D01*
X20760714Y-12164286D01*
X20767857Y-12157143D01*
X20782143Y-12150000D01*
X20810714Y-12150000D01*
X20825000Y-12157143D01*
X20832143Y-12164286D01*
X20839286Y-12178571D01*
X20496429Y-12100000D02*
X20510714Y-12092857D01*
X20532143Y-12092857D01*
X20553571Y-12100000D01*
X20567857Y-12114286D01*
X20575000Y-12128571D01*
X20582143Y-12157143D01*
X20582143Y-12178571D01*
X20575000Y-12207143D01*
X20567857Y-12221429D01*
X20553571Y-12235714D01*
X20532143Y-12242857D01*
X20517857Y-12242857D01*
X20496429Y-12235714D01*
X20489286Y-12228571D01*
X20489286Y-12178571D01*
X20517857Y-12178571D01*
X20425000Y-12242857D02*
X20425000Y-12092857D01*
X20367857Y-12092857D01*
X20353571Y-12100000D01*
X20346429Y-12107143D01*
X20339286Y-12121429D01*
X20339286Y-12142857D01*
X20346429Y-12157143D01*
X20353571Y-12164286D01*
X20367857Y-12171429D01*
X20425000Y-12171429D01*
X20203571Y-12242857D02*
X20275000Y-12242857D01*
X20275000Y-12092857D01*
X20053571Y-12142857D02*
X20017857Y-12242857D01*
X19982143Y-12142857D01*
X19932143Y-12107143D02*
X19925000Y-12100000D01*
X19910714Y-12092857D01*
X19875000Y-12092857D01*
X19860714Y-12100000D01*
X19853571Y-12107143D01*
X19846429Y-12121429D01*
X19846429Y-12135714D01*
X19853571Y-12157143D01*
X19939286Y-12242857D01*
X19846429Y-12242857D01*
X19782143Y-12228571D02*
X19775000Y-12235714D01*
X19782143Y-12242857D01*
X19789286Y-12235714D01*
X19782143Y-12228571D01*
X19782143Y-12242857D01*
X19682143Y-12092857D02*
X19667857Y-12092857D01*
X19653572Y-12100000D01*
X19646429Y-12107143D01*
X19639286Y-12121429D01*
X19632143Y-12150000D01*
X19632143Y-12185714D01*
X19639286Y-12214286D01*
X19646429Y-12228571D01*
X19653572Y-12235714D01*
X19667857Y-12242857D01*
X19682143Y-12242857D01*
X19696429Y-12235714D01*
X19703572Y-12228571D01*
X19710714Y-12214286D01*
X19717857Y-12185714D01*
X19717857Y-12150000D01*
X19710714Y-12121429D01*
X19703572Y-12107143D01*
X19696429Y-12100000D01*
X19682143Y-12092857D01*
%LPC*%
D12*
X18796000Y-13589000D03*
D13*
X18796000Y-13335000D03*
X18796000Y-13081000D03*
X18796000Y-12827000D03*
X18796000Y-12573000D03*
X18796000Y-12319000D03*
D12*
X23622000Y-11430000D03*
D13*
X23622000Y-11176000D03*
X23622000Y-10922000D03*
X23622000Y-10668000D03*
X23622000Y-10414000D03*
X23622000Y-10160000D03*
X23622000Y-9906000D03*
X23622000Y-9652000D03*
X23622000Y-9398000D03*
X23622000Y-9144000D03*
D12*
X23622000Y-13589000D03*
D13*
X23622000Y-13335000D03*
X23622000Y-13081000D03*
X23622000Y-12827000D03*
X23622000Y-12573000D03*
X23622000Y-12319000D03*
X23622000Y-12065000D03*
X23622000Y-11811000D03*
D14*
X19367500Y-13906500D03*
D15*
X19621500Y-13906500D03*
X19875500Y-13906500D03*
X20129500Y-13906500D03*
X20383500Y-13906500D03*
D14*
X20955000Y-13906500D03*
D15*
X21209000Y-13906500D03*
X21463000Y-13906500D03*
X21717000Y-13906500D03*
X21971000Y-13906500D03*
D14*
X21717000Y-8382000D03*
D15*
X21971000Y-8382000D03*
X22225000Y-8382000D03*
D12*
X18796000Y-10033000D03*
D13*
X18796000Y-10287000D03*
X18796000Y-10541000D03*
X18796000Y-10795000D03*
X18796000Y-11049000D03*
X18796000Y-11303000D03*
X18796000Y-11557000D03*
X18796000Y-11811000D03*
D16*
X19431000Y-9017000D03*
X19431000Y-9271000D03*
X19431000Y-8763000D03*
X20510500Y-9017000D03*
X20510500Y-9271000D03*
X20510500Y-8763000D03*
X19367500Y-12700000D03*
X19367500Y-12446000D03*
X19367500Y-12954000D03*
X21272500Y-12700000D03*
X21272500Y-12446000D03*
X21272500Y-12954000D03*
X19494500Y-10223500D03*
X19494500Y-9969500D03*
X19494500Y-10477500D03*
X21971000Y-10223500D03*
X21971000Y-9969500D03*
X21971000Y-10477500D03*
D17*
X19812000Y-8382000D03*
D18*
X20066000Y-8382000D03*
D17*
X20828000Y-8382000D03*
D18*
X21082000Y-8382000D03*
D19*
X22352000Y-11557000D03*
X22352000Y-11811000D03*
X22352000Y-12065000D03*
X22352000Y-12319000D03*
X22352000Y-12573000D03*
X22352000Y-12827000D03*
X22352000Y-13081000D03*
X22352000Y-13335000D03*
X22352000Y-13589000D03*
X23114000Y-13589000D03*
X23114000Y-13335000D03*
X23114000Y-13081000D03*
X23114000Y-12827000D03*
X23114000Y-12573000D03*
X23114000Y-12319000D03*
X23114000Y-12065000D03*
X23114000Y-11811000D03*
X23114000Y-11557000D03*
M02*
